<svg width="22" height="18" viewBox="0 0 22 18" fill="none" xmlns="http://www.w3.org/2000/svg">
<path d="M5.44444 8.77778H12.1111M5.44444 12.1111H8.77778M16.5556 16.5556H2.11111C1.81643 16.5556 1.53381 16.4385 1.32544 16.2301C1.11706 16.0217 1 15.7391 1 15.4444V2.11111C1 1.81643 1.11706 1.53381 1.32544 1.32544C1.53381 1.11706 1.81643 1 2.11111 1H16.5556H19.8889C20.1836 1 20.4662 1.11706 20.6746 1.32544C20.8829 1.53381 21 1.81643 21 2.11111V15.4444C21 15.7391 20.8829 16.0217 20.6746 16.2301C20.4662 16.4385 20.1836 16.5556 19.8889 16.5556H16.5556Z" stroke="black" stroke-width="2" stroke-linecap="round" stroke-linejoin="round"/>
</svg>
