<svg width="20" height="13" viewBox="0 0 20 13" fill="none" xmlns="http://www.w3.org/2000/svg">
<path d="M10 0C10.7735 0 11.5154 0.307291 12.0624 0.854272C12.6094 1.40125 12.9167 2.14312 12.9167 2.91667C12.9167 3.69021 12.6094 4.43208 12.0624 4.97906C11.5154 5.52604 10.7735 5.83333 10 5.83333C9.22645 5.83333 8.48459 5.52604 7.93761 4.97906C7.39062 4.43208 7.08333 3.69021 7.08333 2.91667C7.08333 2.14312 7.39062 1.40125 7.93761 0.854272C8.48459 0.307291 9.22645 0 10 0M4.16667 2.08333C4.63333 2.08333 5.06667 2.20833 5.44167 2.43333C5.31667 3.625 5.66667 4.80833 6.38333 5.73333C5.96667 6.53333 5.13333 7.08333 4.16667 7.08333C3.50363 7.08333 2.86774 6.81994 2.3989 6.3511C1.93006 5.88226 1.66667 5.24637 1.66667 4.58333C1.66667 3.92029 1.93006 3.28441 2.3989 2.81557C2.86774 2.34673 3.50363 2.08333 4.16667 2.08333M15.8333 2.08333C16.4964 2.08333 17.1323 2.34673 17.6011 2.81557C18.0699 3.28441 18.3333 3.92029 18.3333 4.58333C18.3333 5.24637 18.0699 5.88226 17.6011 6.3511C17.1323 6.81994 16.4964 7.08333 15.8333 7.08333C14.8667 7.08333 14.0333 6.53333 13.6167 5.73333C14.3432 4.79535 14.6805 3.6135 14.5583 2.43333C14.9333 2.20833 15.3667 2.08333 15.8333 2.08333M4.58333 10.625C4.58333 8.9 7.00833 7.5 10 7.5C12.9917 7.5 15.4167 8.9 15.4167 10.625V12.0833H4.58333V10.625ZM0 12.0833V10.8333C0 9.675 1.575 8.7 3.70833 8.41667C3.21667 8.98333 2.91667 9.76667 2.91667 10.625V12.0833H0ZM20 12.0833H17.0833V10.625C17.0833 9.76667 16.7833 8.98333 16.2917 8.41667C18.425 8.7 20 9.675 20 10.8333V12.0833Z" fill="#050505"/>
</svg>
