<svg width="20" height="17" viewBox="0 0 20 17" fill="none" xmlns="http://www.w3.org/2000/svg">
<path d="M5.38471 8.46169C5.38471 8.25767 5.46576 8.06201 5.61002 7.91775C5.75428 7.77349 5.94994 7.69244 6.15396 7.69244H13.0772V2.69236C13.0772 1.15387 11.4526 0 10.0002 0H2.69236C1.97853 0.000763584 1.29417 0.284667 0.789416 0.789416C0.284667 1.29417 0.000763584 1.97853 0 2.69236V14.231C0.000763584 14.9448 0.284667 15.6292 0.789416 16.134C1.29417 16.6387 1.97853 16.9226 2.69236 16.9234H10.3848C11.0986 16.9226 11.783 16.6387 12.2877 16.134C12.7925 15.6292 13.0764 14.9448 13.0772 14.231V9.23093H6.15396C5.94994 9.23093 5.75428 9.14989 5.61002 9.00563C5.46576 8.86137 5.38471 8.66571 5.38471 8.46169ZM19.7749 7.91793L15.9286 4.07171C15.7832 3.93354 15.5896 3.85764 15.389 3.86021C15.1884 3.86278 14.9967 3.94361 14.8549 4.08545C14.713 4.2273 14.6322 4.41896 14.6296 4.61954C14.6271 4.82013 14.703 5.01379 14.8411 5.15923L17.3739 7.69244H13.0772V9.23093H17.3739L14.8411 11.7642C14.7667 11.8349 14.7072 11.9198 14.6661 12.0139C14.625 12.108 14.6031 12.2093 14.6018 12.312C14.6005 12.4147 14.6197 12.5165 14.6584 12.6117C14.6971 12.7068 14.7544 12.7932 14.827 12.8658C14.8996 12.9384 14.986 12.9957 15.0811 13.0344C15.1763 13.0731 15.2781 13.0923 15.3808 13.091C15.4835 13.0897 15.5848 13.0678 15.6789 13.0267C15.773 12.9856 15.8579 12.9261 15.9286 12.8517L19.7749 9.00545C19.919 8.8612 20 8.66562 20 8.46169C20 8.25776 19.919 8.06218 19.7749 7.91793V7.91793Z" fill="#050505"/>
</svg>
